<svg width="429" height="27" viewBox="0 0 429 27" fill="none" xmlns="http://www.w3.org/2000/svg">
    <path fill="#FDD659" d="M20.6791 16.5649C19.718 11.7587 20.384 11.2528 27.2301 11.877C30.5619 12.1481 33.93 12.2955 37.3164 12.3812C38.5578 12.3786 40.5567 12.2612 41.0037 11.797C44.7164 7.96952 50.8143 9.02766 55.6886 9.32644C71.4343 10.2719 86.9322 8.90136 102.284 7.32518C134.265 4.04661 166.439 2.56943 198.623 1.4114C220.666 0.634728 242.773 0.69189 264.771 1.11993C277.631 1.33009 290.529 1.41663 303.39 1.62679C305.352 1.63302 307.461 1.84486 309.058 2.38723C309.807 2.65337 309.963 4.57838 309.352 4.89881C306.368 6.25375 303.165 7.65033 299.021 6.97939C294.292 6.18611 289.647 6.86496 284.891 7.21458C272.487 8.25956 260.038 9.10902 247.525 10.5249C252.873 10.6168 258.168 10.8941 263.553 10.8623C277.427 10.7924 291.337 10.5989 305.103 12.3C308.699 12.725 312.542 12.6656 316.202 12.5242C329.482 12.0127 342.572 13.2005 355.598 14.2546C358.628 14.4954 361.649 14.4171 364.735 14.4725C368.422 14.5884 372.165 14.5189 375.916 14.7685C390.156 15.5627 404.341 16.5423 418.425 17.5118C421.054 17.7123 423.884 17.9329 426.303 18.4942C427.27 18.7187 428.202 19.7669 428.12 20.3951C428.057 20.9615 426.56 21.8295 425.602 21.9241C423.302 22.0113 420.892 21.7692 418.564 21.599C386.598 19.2148 354.632 16.8306 322.684 14.3846C321.981 14.314 321.378 14.2534 320.657 14.2446C320.356 14.2144 319.863 14.4831 319.845 14.5449C319.973 14.8123 320.247 15.2854 320.548 15.3156C327.76 16.1038 335.071 16.902 342.319 17.5665C351.073 18.3823 359.763 19.0644 368.516 19.8803C370.123 20.0417 371.775 20.3986 373.172 20.9208C373.921 21.1869 374.524 21.9476 374.478 22.4522C374.433 22.9568 373.557 23.8234 372.918 23.8865C369.559 24.0582 366.201 24.2299 362.951 24.0307C358.278 23.7521 353.613 23.0926 348.976 22.6903C346.767 22.4684 344.96 22.9869 344.422 24.4604C343.584 26.6036 340.709 26.8876 338.043 26.8107C333.936 26.7163 329.956 26.1891 325.903 25.9093C300.034 23.8831 273.947 22.5987 247.823 22.138C221.38 21.7089 194.901 21.4034 168.412 21.4788C137.16 21.5848 105.916 22.0098 74.7456 22.8878C56.8192 23.3779 38.8661 25.011 20.9948 26.0158C17.6359 26.1875 14.2677 26.0401 10.9089 26.2117C4.93043 26.5021 2.88423 23.6235 0.354586 21.3328C-0.695652 20.3363 1.28383 18.1803 3.72079 17.9797C6.99747 17.7361 10.4296 18.0172 13.7885 17.8455C16.2072 17.7067 19.4025 18.7914 20.6152 16.4312C21.4184 16.5119 22.1213 16.5825 22.9246 16.6632C22.742 16.5812 22.678 16.4475 22.4772 16.4273C21.8383 16.4904 21.2998 16.5636 20.6791 16.5649ZM262.391 5.33586C262.399 4.9549 262.29 4.62566 262.299 4.24469C257.653 4.22343 252.989 4.26398 248.361 4.18091C217.144 3.46309 186.065 4.73209 154.923 6.56749C153.243 6.65333 151.609 6.93471 149.894 7.14418C149.574 7.17573 149.182 7.45453 149.164 7.51635C149.392 7.79386 149.684 8.20509 150.068 8.30725C151.054 8.46994 152.039 8.63263 153.08 8.60989C169.692 8.36956 186.286 8.19104 202.935 7.82708C220.222 7.40002 237.464 6.77744 254.706 6.15486C257.325 6.03618 259.835 5.58826 262.391 5.33586ZM311.211 15.0776C310.334 14.544 309.941 14.1227 309.439 14.0722C308.216 14.013 306.92 14.201 305.661 14.2654C306.09 14.5631 306.482 14.9844 306.984 15.0348C308.189 15.1559 309.449 15.0915 311.211 15.0776ZM227.055 16.4874C227.392 16.394 227.63 16.2906 227.967 16.1972C227.702 16.0433 227.356 15.8176 227.072 15.7255C226.972 15.7154 226.68 16.0043 226.425 16.1695C226.507 16.2414 226.772 16.3953 227.055 16.4874ZM282.421 13.1398C282.12 13.1095 281.919 13.0894 281.618 13.0591C281.8 13.1411 282.065 13.295 282.248 13.377C282.266 13.3152 282.284 13.2534 282.421 13.1398Z"/>
</svg>
