<svg version="1.2" xmlns="http://www.w3.org/2000/svg" viewBox="0 0 1920 200" width="1920" height="200">
	<title>New Project</title>
	<style>
		.s0 { fill: #9bc1e5 } 
		.s1 { fill: #2d3393 } 
	</style>
	<path id="&lt;Path&gt;" class="s0" d="m524.1 120.5c276.9 0 276.9-98 553.9-98 276.9 0 276.9 98 553.8 98 145.9 0 215-27.2 288.2-52.9v517.9h-1920.3v-562.6c247.8 6.8 257.7 97.6 524.4 97.6z"/>
	<path id="&lt;Path&gt;" class="s1" d="m177.9 61.8c277.1 0 277.1 98.1 554.1 98.1 277 0 277-98.1 554-98.1 276.9 0 276.9 98.1 553.9 98.1 29.9 0 56.6-1.2 80.8-3.3v468.3h-1920.6v-544.7c45.9-10.9 101.3-18.4 177.8-18.4z"/>
</svg>